<svg width="396" height="56" viewBox="0 0 396 56" fill="none" xmlns="http://www.w3.org/2000/svg">
<path d="M123.37 4.03H105.45V52.67H123.37V4.03Z" fill="#040102"/>
<path d="M276.02 52.66H294.21V4.03H277.93V43.57L245.11 7C242.78 4.42 238.41 4.03 236.01 4.03H218.23V52.67H234.51V13.13L266.8 49.09C268.84 51.28 272.39 52.67 276.02 52.67V52.66Z" fill="#040102"/>
<path d="M170.77 0.690002C147.92 0.690002 129.33 13.1 129.33 28.35C129.33 43.6 147.92 56.01 170.77 56.01C193.62 56.01 212.21 43.6 212.21 28.35C212.21 13.1 193.62 0.690002 170.77 0.690002ZM170.88 45.35C157.07 45.35 145.84 37.72 145.84 28.34C145.84 18.96 157.07 11.33 170.88 11.33C184.69 11.33 195.92 18.96 195.92 28.34C195.92 37.72 184.69 45.35 170.88 45.35Z" fill="#040102"/>
<path d="M84.59 42.76H42.15L31.96 52.92H84.59V42.76Z" fill="#040102"/>
<path d="M53.5899 19.05L80.5699 52.92H98.8699C98.8699 52.92 61.0199 6.17002 60.2899 5.41002C59.4899 4.57002 57.2699 2.39001 54.3099 2.39001C51.4999 2.39001 49.2999 4.28002 47.9799 5.41002C47.0499 6.20002 0.169922 52.92 0.169922 52.92H19.3399L53.5899 19.05Z" fill="#040102"/>
<path d="M325.14 4.02999L342.56 4.08999C343.06 4.08999 343.53 4.29999 343.87 4.66999L364.95 27.56C365.26 27.9 365.4 28.37 365.31 28.82L360.78 51.94C360.7 52.36 360.33 52.66 359.9 52.66H339.94C339.38 52.66 338.95 52.14 339.06 51.59L343.71 28.53C343.79 28.15 343.68 27.77 343.42 27.48L324.32 6.58999C323.91 6.13999 323.77 5.49999 323.97 4.92999C324.13 4.45999 324.46 4.01999 325.12 4.01999L325.14 4.02999Z" fill="#040102"/>
<path d="M375.95 4.08999H395.08C395.58 4.08999 395.8 4.71999 395.4 5.02999L367.89 26.34C367.54 26.61 367.04 26.57 366.74 26.24L358.89 17.72C358.57 17.37 358.61 16.82 358.99 16.53L374.5 4.56999C374.91 4.24999 375.42 4.07999 375.94 4.07999L375.95 4.08999Z" fill="#040102"/>
</svg>
