<svg width="396" height="79" viewBox="0 0 396 79" fill="none" xmlns="http://www.w3.org/2000/svg">
<g clip-path="url(#clip0_189_2123)">
<path d="M123.37 27.0298H105.45V75.6698H123.37V27.0298Z" fill="#040102"/>
<path d="M276.02 75.6598H294.21V27.0298H277.93V66.5698L245.11 29.9998C242.78 27.4198 238.41 27.0298 236.01 27.0298H218.23V75.6698H234.51V36.1298L266.8 72.0898C268.84 74.2798 272.39 75.6698 276.02 75.6698V75.6598Z" fill="#040102"/>
<path d="M170.77 23.6899C147.92 23.6899 129.33 36.0999 129.33 51.3499C129.33 66.5999 147.92 79.0099 170.77 79.0099C193.62 79.0099 212.21 66.5999 212.21 51.3499C212.21 36.0999 193.62 23.6899 170.77 23.6899ZM170.88 68.3499C157.07 68.3499 145.84 60.7199 145.84 51.3399C145.84 41.9599 157.07 34.3299 170.88 34.3299C184.69 34.3299 195.92 41.9599 195.92 51.3399C195.92 60.7199 184.69 68.3499 170.88 68.3499Z" fill="#040102"/>
<path d="M84.59 65.7603H42.15L31.96 75.9202H84.59V65.7603Z" fill="#040102"/>
<path d="M53.59 42.0501L80.57 75.9201H98.87C98.87 75.9201 61.02 29.1701 60.29 28.4101C59.49 27.5701 57.27 25.3901 54.31 25.3901C51.5 25.3901 49.3 27.2801 47.98 28.4101C47.05 29.2001 0.169983 75.9201 0.169983 75.9201H19.34L53.59 42.0501Z" fill="#040102"/>
<path d="M325.14 27.03L342.56 27.09C343.06 27.09 343.53 27.3 343.87 27.67L364.95 50.56C365.26 50.9 365.4 51.37 365.31 51.82L360.78 74.94C360.7 75.36 360.33 75.66 359.9 75.66H339.94C339.38 75.66 338.95 75.14 339.06 74.59L343.71 51.53C343.79 51.15 343.68 50.77 343.42 50.48L324.32 29.59C323.91 29.14 323.77 28.5 323.97 27.93C324.13 27.46 324.46 27.02 325.12 27.02L325.14 27.03Z" fill="#040102"/>
<path d="M375.95 27.0901H395.08C395.58 27.0901 395.8 27.7201 395.4 28.0301L367.89 49.3401C367.54 49.6101 367.04 49.5701 366.74 49.2401L358.89 40.7201C358.57 40.3701 358.61 39.8201 358.99 39.5301L374.5 27.5701C374.91 27.2501 375.42 27.0801 375.94 27.0801L375.95 27.0901Z" fill="#040102"/>
<path d="M12.03 0C13.02 0.79 13.8 1.76 14.37 2.92C14.94 4.08 15.23 5.33 15.23 6.66V13.32H12.57V9.13H2.67V13.32H0V6.66C0 5.33 0.29 4.08 0.86 2.92C1.43 1.76 2.21 0.79 3.2 0H12.03ZM12.56 6.66C12.56 5.86 12.42 5.1 12.14 4.38C11.86 3.66 11.47 3.02 10.96 2.48H4.26C3.75 3.03 3.36 3.66 3.08 4.38C2.8 5.1 2.66 5.86 2.66 6.66H12.56Z" fill="#040102"/>
<path d="M23.51 0V10.85H32.27V13.32H20.85V0H23.52H23.51Z" fill="#040102"/>
<path d="M40.32 0V10.85H49.08V13.32H37.66V0H40.33H40.32Z" fill="#040102"/>
<path d="M77.5 5.44V0H80.16V13.33H77.5V8.3L67.6 2.86V13.33H64.93V0H67.6L77.5 5.44Z" fill="#040102"/>
<path d="M99.48 0V2.47H88.53V5.42H98.52V7.9H88.53V10.85H99.48V13.32H85.87V0H99.48Z" fill="#040102"/>
<path d="M120.71 0H123.37V6.66C123.37 7.99 123.08 9.24 122.51 10.4C121.94 11.56 121.16 12.54 120.17 13.32H116.1C115.38 12.75 114.75 12.06 114.23 11.25C113.71 12.06 113.09 12.75 112.36 13.32H108.29C107.3 12.53 106.52 11.56 105.95 10.4C105.38 9.24 105.09 7.99 105.09 6.66V0H107.76V6.66C107.76 7.46 107.9 8.22 108.18 8.94C108.46 9.66 108.85 10.3 109.36 10.84H111.3C111.81 10.29 112.2 9.66 112.48 8.94C112.76 8.22 112.9 7.46 112.9 6.66V0H115.56V6.66C115.56 7.46 115.7 8.22 115.98 8.94C116.26 9.66 116.65 10.3 117.16 10.84H119.1C119.61 10.29 120 9.66 120.28 8.94C120.56 8.22 120.7 7.46 120.7 6.66V0H120.71Z" fill="#040102"/>
</g>
<defs>
<clipPath id="clip0_189_2123">
<rect width="395.61" height="79" fill="white"/>
</clipPath>
</defs>
</svg>
